<svg width="20" height="21" viewBox="0 0 20 21" fill="none" xmlns="http://www.w3.org/2000/svg">
<path d="M15.6244 5.5V13.625C15.6244 13.7908 15.5585 13.9497 15.4413 14.0669C15.3241 14.1842 15.1651 14.25 14.9994 14.25C14.8336 14.25 14.6746 14.1842 14.5574 14.0669C14.4402 13.9497 14.3744 13.7908 14.3744 13.625V7.00859L5.44156 15.9422C5.32428 16.0595 5.16522 16.1253 4.99937 16.1253C4.83352 16.1253 4.67446 16.0595 4.55718 15.9422C4.43991 15.8249 4.37402 15.6659 4.37402 15.5C4.37402 15.3341 4.43991 15.1751 4.55718 15.0578L13.4908 6.125H6.87437C6.70861 6.125 6.54964 6.05915 6.43243 5.94194C6.31522 5.82473 6.24937 5.66576 6.24937 5.5C6.24937 5.33424 6.31522 5.17527 6.43243 5.05806C6.54964 4.94085 6.70861 4.875 6.87437 4.875H14.9994C15.1651 4.875 15.3241 4.94085 15.4413 5.05806C15.5585 5.17527 15.6244 5.33424 15.6244 5.5Z" fill="#222222" fill-opacity="0.8"/>
</svg>
